<svg version="1" xmlns="http://www.w3.org/2000/svg" width="682.667" height="682.667" viewBox="0 0 512.000000 512.000000"><path d="M0 256v256h512V0H0v256zM262 28c0 .5.6 1 1.4 1 1.8 0 7.6 5.7 7.6 7.5 0 .7.6 1.5 1.3 1.7.9.4 1.2 7.2 1.2 29.8s-.3 29.4-1.2 29.7c-.7.3-1.3.9-1.3 1.5 0 1.4-4.2 5.8-5.7 5.8-.6 0-1.3.6-1.5 1.2-.3.9-3.1 1.3-9.3 1.3-6.2 0-9-.4-9.2-1.3-.3-.6-1-1.2-1.6-1.2-1.5 0-5.7-4.4-5.7-5.8 0-.6-.6-1.2-1.2-1.5-1-.3-1.3-7.1-1.3-29.7s.3-29.4 1.3-29.8c.6-.2 1.2-1 1.2-1.7 0-1.8 5.8-7.5 7.6-7.5.8 0 1.4-.5 1.4-1 0-.6 3.2-1 7.5-1s7.5.4 7.5 1zM110.8 90.8c.2.7.9 1.2 1.7 1.2 1.3 0 30.5 28.2 30.5 29.4 0 .4 1.4 2.2 3 3.9 1.7 1.8 3.7 3.9 4.5 4.8.8.9 1.5 2.8 1.5 4.2 0 1.5.5 2.7 1 2.7.6 0 1 1.3 1 3 0 1.6-.4 3-.9 3-.4 0-1.1 1.5-1.4 3.4-.3 2.1-2 4.8-4.4 7.2l-3.8 3.9h-8.7c-8.1 0-8.8-.2-11.2-2.8-1.4-1.5-2.9-2.7-3.5-2.7-.8 0-10.8-9.8-29.6-29.1-2.5-2.6-4.5-5.2-4.5-5.8 0-.6-.4-1.1-1-1.1s-1-3.2-1-7.5c0-4.1.4-7.5.9-7.5s1.2-1.1 1.5-2.5c.4-1.4 1.1-2.5 1.6-2.5.6 0 1-.7 1-1.5s.7-1.5 1.5-1.5c.7 0 1.8-.6 2.2-1.4.4-.8 1.9-1.6 3.3-1.9 4.3-.9 14.4-.1 14.8 1.1zM419 94.1c2.2 2.3 4 4.8 4 5.5 0 .8.5 1.4 1 1.4.6 0 1 3.2 1 7.5s-.4 7.5-1 7.5c-.5 0-1 .5-1 1.1 0 .6-2 3.2-4.5 5.8-20.4 20.9-30.7 31.1-31.5 31.1-.5 0-1.6.8-2.6 1.7-1.4 1.5-3.5 1.8-10.4 1.8-8.3 0-8.8-.2-11.3-2.9-1.5-1.6-2.7-3.5-2.7-4.2 0-.7-.6-1.4-1.2-1.7-2-.6-1.8-16.7.2-19 .8-1 6.1-6.4 11.8-12.1 5.6-5.8 10.2-10.7 10.2-11.1 0-1.2 14.3-14.5 15.6-14.5.8 0 1.4-.4 1.4-.9 0-1.4 3.8-2 10.7-1.6 5.8.4 6.5.7 10.3 4.6zM274 147c.3.5 3.1 1.1 6.3 1.5 3.1.4 5.7 1.1 5.7 1.5 0 .4 2 1.1 4.5 1.4 2.5.4 4.5 1.1 4.5 1.5 0 .5 1.8 1.1 4 1.5 2.2.3 4 1 4 1.5s1.3 1.2 2.9 1.6c1.6.3 3.2 1.3 3.5 2.1.3.8 1.2 1.4 2.1 1.4.8 0 1.5.4 1.5.9s1.2 1.2 2.7 1.6c1.5.3 3.7 1.7 5 3.1 1.2 1.3 2.6 2.4 3.2 2.4.5 0 3 2 5.4 4.5 2.5 2.5 5 4.5 5.6 4.5.6 0 1.1.5 1.1 1.2 0 .6 2 3 4.4 5.4 2.4 2.3 4.7 5.1 5 6.2.4 1.1 1.3 2.3 2.1 2.6.8.3 1.5 1.2 1.5 2.1 0 .8.4 1.5 1 1.5.5 0 1.2 1.1 1.6 2.5.3 1.4 1 2.5 1.4 2.5.5 0 1.1 1.3 1.5 3 .4 1.6 1 3 1.5 3s1.1 1.3 1.5 3c.4 1.6 1.1 3 1.5 3 .5 0 1.2 1.6 1.6 3.5.3 1.9 1 3.5 1.4 3.5.4 0 1 1.9 1.4 4.2.4 2.3 1.1 4.5 1.6 4.8.5.3 1.2 3.8 1.6 7.8.4 4 1.1 7.2 1.5 7.2.5 0 .9 7 .9 15.5s-.4 15.5-.9 15.5-1.2 2.9-1.6 6.5c-.3 3.6-1 6.5-1.5 6.5-.4 0-1.1 2-1.4 4.5-.4 2.5-1.1 4.5-1.5 4.5-.5 0-1.2 2-1.5 4.5-.4 2.5-1.1 4.5-1.6 4.5s-1.1 1.3-1.5 3c-.4 1.6-1 3-1.5 3-.4 0-1.1 1.1-1.4 2.5-.4 1.4-1.1 2.5-1.6 2.5-.6 0-1 .7-1 1.5 0 .9-.6 1.8-1.4 2.1-.8.3-1.7 1.6-2 3-.4 1.3-1.1 2.4-1.6 2.4-.6 0-1 .5-1 1.1 0 .7-1.6 2.7-3.5 4.6-1.9 1.9-3.5 3.8-3.5 4.3 0 1.2-6.8 8-8 8-.5 0-2.4 1.6-4.3 3.5s-3.9 3.5-4.6 3.5c-.6 0-1.1.4-1.1 1 0 .5-1.1 1.2-2.4 1.6-1.4.3-2.7 1.2-3 2-.3.8-1.2 1.4-2.1 1.4-.8 0-1.5.4-1.5.9s-1.3 1.2-3 1.6c-1.6.4-3 1-3 1.5s-1.3 1.1-3 1.5c-1.6.4-3 1-3 1.5 0 .4-1.8 1-4 1.4-2.2.3-4 1-4 1.6 0 .5-2.1 1.2-4.7 1.6-2.7.4-5.1 1.1-5.4 1.6-.3.4-5.6 1.1-11.7 1.5-6.2.3-11.2 1-11.2 1.5 0 .4-2 .8-4.5.8s-4.5-.4-4.5-.8c0-.5-5-1.2-11.2-1.5-6.1-.4-11.4-1.1-11.7-1.5-.3-.5-2.4-1.2-4.5-1.5-2.2-.4-4.2-1.1-4.5-1.6-.4-.6-2.6-1.3-4.9-1.7-2.3-.4-4.2-1-4.2-1.4 0-.5-1.3-1.1-3-1.5-1.6-.4-3-1-3-1.5s-1.3-1.1-3-1.5c-1.7-.4-3-1.1-3-1.6s-.6-.9-1.3-.9c-.7 0-2-.9-3-2-.9-1.1-2.4-2-3.2-2-.8 0-1.5-.5-1.5-1 0-.6-.8-1.4-1.7-1.7-1-.4-3.5-2.4-5.5-4.5-2.1-2.1-4.2-3.8-4.7-3.8-1.2 0-6.1-4.7-6.1-5.9 0-.6-1.6-2.5-3.5-4.4-1.9-1.9-3.5-3.9-3.5-4.6 0-.6-.4-1.1-1-1.1-.5 0-1.2-1.1-1.6-2.4-.3-1.4-1.2-2.7-2-3-.8-.3-1.4-1.2-1.4-2.1 0-.8-.4-1.5-1-1.5-.5 0-1.2-1.1-1.6-2.5-.3-1.4-1-2.5-1.5-2.5-.4 0-1.1-1.6-1.5-3.5-.3-1.9-1-3.5-1.5-3.5s-1.2-1.8-1.5-4c-.4-2.2-1-4-1.5-4-.4 0-1.1-1.6-1.5-3.5-.3-1.9-1-3.5-1.4-3.5-.4 0-1.1-3.4-1.5-7.5-.4-4.1-1.1-7.5-1.6-7.5s-.9-6.8-.9-15.5c0-8.5.4-15.5.9-15.5.4 0 1.2-3.6 1.5-8 .4-4.4 1.2-8 1.7-8s1.2-1.8 1.5-4c.4-2.2 1-4 1.4-4 .4 0 1.1-1.6 1.4-3.5.4-1.9 1.1-3.5 1.6-3.5.4 0 1.1-1.4 1.5-3 .4-1.7 1-3 1.5-3s1.1-1.4 1.5-3c.4-1.7 1-3 1.5-3 .4 0 1.1-1.1 1.4-2.5.4-1.4 1.1-2.5 1.6-2.5.6 0 1-.7 1-1.5 0-.9.7-1.8 1.5-2.1.8-.4 1.5-1.2 1.5-1.9 0-1.7 20.8-22.5 22.5-22.5.7 0 1.5-.7 1.9-1.5.3-.8 1.2-1.5 2.1-1.5.8 0 1.5-.4 1.5-1 0-.5 1.1-1.2 2.4-1.6 1.4-.3 2.7-1.2 3-2 .3-.8 1.2-1.4 2.1-1.4.8 0 1.5-.4 1.5-.9s1.4-1.2 3-1.6c1.7-.4 3-1.1 3-1.6s1.8-1.2 4-1.5c2.2-.4 4-1 4-1.4 0-.5 1.9-1.1 4.3-1.5 2.3-.4 4.5-1.2 4.8-1.7.3-.5 3.4-1.2 6.8-1.5 3.3-.3 6.1-.9 6.1-1.4 0-1.7 36.8-1.6 38 .1zM92.8 242.6c.4.6 1.7 1.4 2.9 1.8 1.2.4 2.5 1.7 2.9 2.9.4 1.2 1.2 2.5 1.8 2.9.7.5 1.1 4.3 1.1 10.1v9.3l-3.6 3.7c-2 2-4.1 3.7-4.8 3.7-.6 0-1.1.4-1.1 1s-10.2 1-28.5 1-28.5-.4-28.5-1-1-1-2.1-1c-2.7 0-8.6-5.9-9.5-9.4-.3-1.4-1-2.6-1.5-2.6s-.9-2.5-.9-5.5.5-5.5 1-5.5c.6 0 1-.8 1-1.9 0-2.4 7.2-9.8 10.2-10.4 5.1-1 58.9-.2 59.6.9zm389 3.3c2.3 2.4 4.2 5 4.2 5.7 0 .8.5 1.4 1 1.4.6 0 1 3 1 7s-.4 7-1 7c-.5 0-1 .5-1 1.1 0 2-7.7 8.9-9.9 8.9-1.1 0-2.1.4-2.1 1s-9.8 1-27.5 1c-15.4 0-27.5-.4-27.5-.9s-1.2-1.2-2.6-1.5c-2.9-.8-5.4-2.8-5.4-4.5 0-.5-.8-1.4-1.7-2-1.5-.8-1.8-2.4-1.8-9.9 0-7.1.3-9.2 1.8-10.6.9-1 1.7-2.4 1.7-3.2 0-.8.6-1.4 1.4-1.4.8 0 2.1-.6 2.8-1.3.7-.8 2-1.7 2.8-2 .8-.3 14.6-.5 30.5-.4l29 .2 4.3 4.4zM137 361.9c0 .4 1.8 1.1 4 1.4 4.8.6 9.7 5.1 10.6 9.6.4 1.7 1 3.1 1.5 3.1s.9 1.8.9 4-.4 4-.9 4c-.4 0-1.1 1.5-1.4 3.4-.5 3.3-2.2 5.1-31.4 33.6-4.6 4.5-8.3 7.2-10.2 7.6-1.7.4-3.1 1-3.1 1.5s-2 .9-4.5.9-4.5-.5-4.5-1c0-.6-1.1-1-2.5-1s-2.8-.6-3.1-1.4c-.3-.8-1.6-1.7-2.9-2-1.6-.4-2.6-1.6-3-3.6-.4-1.6-1.1-3-1.6-3s-.9-3.2-.9-7c0-3.9.4-7 .9-7s1.2-1.1 1.5-2.5c.7-2.8 12.6-15.1 15.6-16 1.1-.3 2-1 2-1.5 0-.4 4.6-5.4 10.1-11 7.9-7.8 10.9-10.3 13.5-10.7 1.9-.3 3.4-1 3.4-1.4 0-.5 1.4-.9 3-.9 1.7 0 3 .4 3 .9zm241 0c0 .5 1.6 1.2 3.5 1.5 2.7.5 5.6 2.8 12.4 9.6 4.9 5 9.1 9 9.4 9 1.5 0 18.8 18.4 19.3 20.6.3 1.3 1 2.4 1.5 2.4s.9 3.1.9 7c0 3.8-.4 7-.9 7s-1.2 1.4-1.6 3c-.5 2.1-1.4 3.2-3.1 3.6-1.3.3-2.4 1-2.4 1.4 0 .5-1.3 1.1-3 1.5-1.6.4-3 1.1-3 1.6s-2 .9-4.5.9-4.5-.5-4.5-1c0-.6-.9-1-1.9-1-1.1 0-2.6-.7-3.5-1.5-.8-.8-1.8-1.5-2.2-1.5-.3 0-2.7-2-5.3-4.5-20.6-20.1-29.1-28.9-29.1-30 0-.7-.6-1.5-1.2-1.8-.9-.2-1.3-3-1.3-9.3v-8.9l4.4-4.3c3.1-3 5.2-4.2 7.2-4.2 1.6 0 2.9-.5 2.9-1 0-.6 1.4-1 3-1 1.7 0 3 .4 3 .9zm-122 50c0 .4 1.8 1.1 4 1.4 3 .4 5.1 1.6 8.7 5.3l4.8 4.7v29c0 22.3-.3 29.1-1.2 29.5-.7.2-1.3.8-1.3 1.4 0 1.9-7.7 8.8-9.9 8.8-1.1 0-2.1.4-2.1 1 0 .5-2 1-4.5 1s-4.5-.5-4.5-1c0-.6-1-1-2.1-1-2.2 0-9.9-6.9-9.9-8.8 0-.6-.6-1.2-1.2-1.5-1-.3-1.3-7-1.3-29.2s.3-28.9 1.3-29.3c.6-.2 1.2-.8 1.2-1.4 0-.6 1.6-2.7 3.6-4.6 2.7-2.6 4.7-3.6 8-4 2.4-.2 4.4-.9 4.4-1.3 0-.5.5-.9 1-.9.6 0 1 .4 1 .9z"/><path d="M239.8 184.7c-2.7.2-4.8.8-4.8 1.2 0 .5-2 1.2-4.5 1.5-2.5.4-4.5 1.1-4.5 1.6s-1.3 1.1-3 1.5c-1.6.4-3 1-3 1.5s-1.3 1.1-3 1.5c-1.6.4-3 1-3 1.5s-1 1.2-2.2 1.5c-1.1.4-3.1 1.8-4.3 3.1-1.2 1.3-2.6 2.4-3 2.4-1.2 0-10 9.2-10.8 11.2-.3 1-1.1 1.8-1.6 1.8s-1.2 1.1-1.5 2.5c-.4 1.4-1 2.5-1.5 2.5s-1.2 1.3-1.6 3c-.4 1.6-1 3-1.5 3-.4 0-1.1 1.2-1.5 2.7-.3 1.5-1.1 3-1.6 3.4-.5.3-1.2 2.3-1.6 4.5-.3 2.1-1.1 4.2-1.7 4.6-1.5 1-1.5 36.6 0 37.6.6.4 1.4 2.8 1.8 5.4.4 2.7 1.1 4.8 1.6 4.8s1.1 1.3 1.5 3c.4 1.7 1 3 1.5 3s1.1 1.3 1.5 3c.4 1.7 1 3 1.5 3s1.2.9 1.5 2c.8 2.6 18.9 20.7 21.5 21.5 1.1.3 2 1 2 1.5s1.4 1.1 3 1.5c1.7.4 3 1 3 1.5s1.4 1.1 3 1.5c1.7.4 3 1 3 1.5s2.1 1.2 4.8 1.6c2.6.4 5 1.2 5.4 1.8 1 1.5 35.6 1.5 36.6 0 .4-.6 2.8-1.4 5.5-1.8 2.6-.4 4.7-1.1 4.7-1.6s1.4-1.1 3-1.5c1.7-.4 3-1 3-1.5s1.4-1.1 3-1.5c1.7-.4 3-1 3-1.5s1-1.2 2.2-1.6c1.2-.4 3.3-2 4.7-3.5 1.4-1.6 2.9-2.9 3.4-2.9 1 0 6.7-5.6 6.7-6.6 0-.4 1.6-2.2 3.5-4.1 1.9-1.9 3.5-4 3.5-4.8 0-.8.5-1.5 1-1.5.6 0 1-.7 1-1.5 0-.9.7-1.8 1.5-2.1.8-.3 1.7-2.2 2.1-4.2.4-2.1 1.1-4 1.6-4.3.5-.3 1.1-2.3 1.5-4.5.3-2.1 1.1-4.2 1.7-4.6 1.6-1.1 1.5-39.6-.1-40.6-.7-.4-1.5-2.7-1.9-5-.4-2.3-1-4.2-1.4-4.2-.5 0-1.1-1.4-1.5-3-.4-1.7-1.1-3-1.6-3s-.9-.7-.9-1.5c0-.9-.6-1.8-1.4-2.1-.8-.3-1.7-1.6-2-3-.4-1.3-1.1-2.4-1.6-2.4-.6 0-1-.5-1-1.1 0-1.3-12.4-13.9-13.7-13.9-.5 0-1.6-.9-2.6-2-.9-1.1-2.4-2-3.2-2-.8 0-1.5-.5-1.5-1 0-.6-.7-1-1.5-1-.9 0-1.8-.6-2.1-1.4-.3-.7-2.3-1.6-4.5-2-2.1-.3-3.9-1-3.9-1.5s-1.9-1.2-4.2-1.6c-2.4-.4-4.6-1.2-4.9-1.8-.7-1-25.7-1.8-34.1-1z"/></svg>